<?xml version="1.0" encoding="utf-8"?>
<!-- Generator: Adobe Illustrator 16.0.0, SVG Export Plug-In . SVG Version: 6.00 Build 0)  -->
<!DOCTYPE svg PUBLIC "-//W3C//DTD SVG 1.1//EN" "http://www.w3.org/Graphics/SVG/1.1/DTD/svg11.dtd">
<svg version="1.1" id="Layer_1" xmlns="http://www.w3.org/2000/svg" xmlns:xlink="http://www.w3.org/1999/xlink" x="0px" y="0px"
	 width="250px" height="250px" viewBox="0 0 250 250" enable-background="new 0 0 250 250" xml:space="preserve">
<path d="M239.016,102.572c0-25.166-20.01-45.692-44.949-46.639c-0.946-24.939-21.473-44.949-46.636-44.949
	c-8.125,0-15.768,2.094-22.431,5.755c-6.664-3.661-14.303-5.755-22.431-5.755c-25.163,0-45.689,20.01-46.636,44.949
	c-24.939,0.946-44.949,21.473-44.949,46.639c0,8.125,2.094,15.767,5.755,22.428c-3.661,6.663-5.755,14.306-5.755,22.431
	c0,25.163,20.01,45.689,44.949,46.636c0.946,24.939,21.473,44.949,46.636,44.949c8.128,0,15.767-2.091,22.431-5.755
	c6.663,3.664,14.306,5.755,22.431,5.755c25.163,0,45.689-20.01,46.636-44.949c24.939-0.946,44.949-21.473,44.949-46.636
	c0-8.125-2.091-15.768-5.755-22.431C236.925,118.339,239.016,110.697,239.016,102.572z M235.276,102.572
	c0,6.69-1.581,13.007-4.319,18.66c-8.098-11.917-21.566-19.86-36.891-20.441c-0.282-7.455-2.271-14.479-5.663-20.649
	c3.365-6.119,5.346-13.081,5.655-20.47C216.939,60.61,235.276,79.465,235.276,102.572z M194.059,145.471
	c-0.31-7.389-2.29-14.352-5.655-20.471c3.365-6.12,5.346-13.082,5.655-20.471c14.735,0.605,27.556,8.637,34.835,20.471
	C221.614,136.834,208.794,144.865,194.059,145.471z M169.857,184.035c-11.777-7.247-19.79-19.984-20.459-34.637
	c14.652,0.669,27.39,8.682,34.637,20.459C180.486,175.628,175.628,180.486,169.857,184.035z M186.1,173.628
	c2.466,5.093,3.948,10.73,4.221,16.692c-5.962-0.272-11.6-1.755-16.692-4.221C178.529,182.767,182.767,178.529,186.1,173.628z
	 M65.967,169.857c7.245-11.777,19.982-19.79,34.635-20.459c-0.666,14.652-8.68,27.39-20.46,34.637
	C74.372,180.486,69.514,175.628,65.967,169.857z M76.371,186.1c-5.09,2.466-10.729,3.948-16.688,4.221
	c0.271-5.962,1.751-11.6,4.221-16.692C67.233,178.529,71.471,182.767,76.371,186.1z M21.106,125
	c7.279-11.834,20.1-19.865,34.837-20.471c0.307,7.389,2.291,14.351,5.653,20.471c-3.362,6.119-5.347,13.082-5.653,20.471
	C41.206,144.865,28.386,136.834,21.106,125z M80.142,65.967c11.78,7.245,19.794,19.982,20.46,34.635
	c-14.652-0.666-27.39-8.68-34.635-20.46C69.514,74.372,74.372,69.514,80.142,65.967z M63.903,76.371
	c-2.47-5.09-3.949-10.729-4.221-16.688c5.959,0.271,11.599,1.751,16.688,4.221C71.471,67.233,67.233,71.471,63.903,76.371z
	 M184.035,80.142c-7.247,11.78-19.984,19.794-34.637,20.46c0.669-14.652,8.682-27.39,20.459-34.635
	C175.628,69.514,180.486,74.372,184.035,80.142z M173.628,63.903c5.093-2.47,10.73-3.949,16.692-4.221
	c-0.272,5.959-1.755,11.599-4.221,16.688C182.767,71.471,178.529,67.233,173.628,63.903z M145.562,190.325
	c-6-0.261-11.672-1.746-16.791-4.226c7.375-5.016,13.247-12.082,16.791-20.375V190.325z M104.441,59.677
	c5.997,0.259,11.668,1.744,16.791,4.227c-7.379,5.013-13.25,12.079-16.791,20.372V59.677z M104.441,104.441h41.12v41.12h-41.12
	V104.441z M145.562,84.275c-3.544-8.293-9.416-15.359-16.791-20.372c5.119-2.482,10.791-3.968,16.791-4.227V84.275z
	 M145.465,100.703h-40.93c0.637-14.695,8.657-27.476,20.465-34.736C136.807,73.228,144.83,86.008,145.465,100.703z M100.703,104.535
	v40.93C86.008,144.83,73.228,136.807,65.967,125C73.228,113.192,86.008,105.172,100.703,104.535z M63.903,121.232
	c-2.482-5.123-3.968-10.794-4.227-16.791h24.599C75.982,107.982,68.916,113.854,63.903,121.232z M84.275,145.562H59.677
	c0.259-6,1.744-11.672,4.227-16.791C68.916,136.146,75.982,142.018,84.275,145.562z M104.441,165.725
	c3.541,8.293,9.412,15.359,16.791,20.375c-5.123,2.479-10.794,3.965-16.791,4.226V165.725z M104.535,149.3h40.93
	c-0.635,14.694-8.658,27.473-20.465,34.735C113.192,176.772,105.172,163.994,104.535,149.3z M149.3,145.465v-40.93
	c14.694,0.637,27.473,8.657,34.735,20.465C176.772,136.807,163.994,144.83,149.3,145.465z M186.1,128.771
	c2.479,5.119,3.965,10.791,4.226,16.791h-24.601C174.018,142.018,181.084,136.146,186.1,128.771z M165.725,104.441h24.601
	c-0.261,5.997-1.746,11.668-4.226,16.791C181.084,113.854,174.018,107.982,165.725,104.441z M165.725,100.703
	c8.293-3.544,15.359-9.415,20.375-16.794c2.479,5.123,3.965,10.794,4.226,16.794H165.725z M149.3,84.275V59.677
	c5.996,0.259,11.671,1.744,16.79,4.227C158.712,68.916,152.841,75.982,149.3,84.275z M125,61.597
	c-6.12-3.362-13.082-5.347-20.471-5.655c0.605-14.735,8.637-27.556,20.471-34.835c11.834,7.279,19.865,20.1,20.471,34.835
	C138.082,56.25,131.119,58.234,125,61.597z M100.703,84.275c-3.544-8.293-9.415-15.359-16.791-20.372
	c5.12-2.482,10.791-3.968,16.791-4.227V84.275z M84.275,100.703H59.677c0.259-6,1.744-11.671,4.227-16.794
	C68.916,91.288,75.982,97.159,84.275,100.703z M84.275,149.3c-8.293,3.541-15.359,9.412-20.372,16.79
	c-2.482-5.119-3.968-10.794-4.227-16.79H84.275z M100.703,165.725v24.601c-6-0.261-11.671-1.746-16.791-4.226
	C91.288,181.084,97.159,174.018,100.703,165.725z M125,188.403c6.119,3.365,13.082,5.346,20.471,5.655
	c-0.605,14.735-8.637,27.556-20.471,34.835c-11.834-7.279-19.865-20.1-20.471-34.835C111.918,193.749,118.88,191.769,125,188.403z
	 M149.3,165.725c3.541,8.293,9.412,15.359,16.79,20.375c-5.119,2.479-10.794,3.965-16.79,4.226V165.725z M165.725,149.3h24.601
	c-0.261,5.996-1.746,11.671-4.226,16.79C181.084,158.712,174.018,152.841,165.725,149.3z M147.431,14.723
	c23.107,0,41.959,18.338,42.897,41.219c-7.389,0.309-14.348,2.293-20.471,5.655c-6.17-3.392-13.193-5.381-20.648-5.663
	c-0.581-15.324-8.522-28.79-20.438-36.891C134.423,16.305,140.737,14.723,147.431,14.723z M102.569,14.723
	c6.693,0,13.01,1.582,18.663,4.32c-11.917,8.101-19.86,21.566-20.441,36.891c-7.455,0.282-14.479,2.271-20.649,5.663
	c-6.119-3.362-13.081-5.347-20.47-5.655C60.61,33.061,79.465,14.723,102.569,14.723z M14.723,102.572
	c0-23.107,18.338-41.962,41.221-42.9c0.307,7.389,2.291,14.351,5.653,20.47c-3.392,6.171-5.381,13.194-5.663,20.649
	c-15.324,0.581-28.79,8.524-36.891,20.441C16.305,115.579,14.723,109.263,14.723,102.572z M14.723,147.431
	c0-6.693,1.582-13.008,4.32-18.66c8.101,11.916,21.566,19.857,36.891,20.438c0.282,7.455,2.271,14.479,5.663,20.648
	c-3.362,6.123-5.347,13.082-5.653,20.471C33.061,189.39,14.723,170.538,14.723,147.431z M102.569,235.276
	c-23.104,0-41.959-18.337-42.897-41.218c7.389-0.31,14.351-2.29,20.47-5.655c6.171,3.392,13.194,5.381,20.649,5.663
	c0.581,15.324,8.524,28.793,20.441,36.891C115.579,233.695,109.263,235.276,102.569,235.276z M147.431,235.276
	c-6.693,0-13.008-1.581-18.66-4.319c11.916-8.098,19.857-21.566,20.438-36.891c7.455-0.282,14.479-2.271,20.648-5.663
	c6.123,3.365,13.082,5.346,20.471,5.655C189.39,216.939,170.538,235.276,147.431,235.276z M235.276,147.431
	c0,23.107-18.337,41.959-41.218,42.897c-0.31-7.389-2.29-14.348-5.655-20.471c3.392-6.17,5.381-13.193,5.663-20.648
	c15.324-0.581,28.793-8.522,36.891-20.438C233.695,134.423,235.276,140.737,235.276,147.431z"/>
</svg>
